<svg width="384" height="73" viewBox="0 0 384 73" fill="none" xmlns="http://www.w3.org/2000/svg">
<mask id="path-1-outside-1_128_2" maskUnits="userSpaceOnUse" x="43.1079" y="4.67212" width="29" height="43" fill="black">
<rect fill="white" x="43.1079" y="4.67212" width="29" height="43"/>
<path fill-rule="evenodd" clip-rule="evenodd" d="M60.6749 22.4683C59.81 24.2463 58.2769 26.743 56.0755 29.9585L45.1079 46.1872H52.0094L56.7275 39.968L62.0311 32.2283C64.5076 28.5966 66.2373 25.646 67.22 23.3762C68.2421 21.0686 68.7531 18.761 68.7531 16.4535C68.7531 14.4485 68.3207 12.6327 67.4559 11.006C66.5911 9.37939 65.2938 8.09319 63.5642 7.14746C61.8738 6.1639 59.8297 5.67212 57.4317 5.67212C52.9897 5.67212 48.98 7.05289 45.4027 9.81442L46.2283 16.5102C49.491 13.3704 52.8324 11.8005 56.2524 11.8005C58.0607 11.8005 59.4759 12.3112 60.498 13.3325C61.52 14.3539 62.0311 15.7347 62.0311 17.4748C62.0311 19.0258 61.579 20.6903 60.6749 22.4683ZM64.5962 40.0589L60.0336 46.1872H70.2273V40.0589H64.5962Z"/>
</mask>
<path fill-rule="evenodd" clip-rule="evenodd" d="M60.6749 22.4683C59.81 24.2463 58.2769 26.743 56.0755 29.9585L45.1079 46.1872H52.0094L56.7275 39.968L62.0311 32.2283C64.5076 28.5966 66.2373 25.646 67.22 23.3762C68.2421 21.0686 68.7531 18.761 68.7531 16.4535C68.7531 14.4485 68.3207 12.6327 67.4559 11.006C66.5911 9.37939 65.2938 8.09319 63.5642 7.14746C61.8738 6.1639 59.8297 5.67212 57.4317 5.67212C52.9897 5.67212 48.98 7.05289 45.4027 9.81442L46.2283 16.5102C49.491 13.3704 52.8324 11.8005 56.2524 11.8005C58.0607 11.8005 59.4759 12.3112 60.498 13.3325C61.52 14.3539 62.0311 15.7347 62.0311 17.4748C62.0311 19.0258 61.579 20.6903 60.6749 22.4683ZM64.5962 40.0589L60.0336 46.1872H70.2273V40.0589H64.5962Z" fill="white"/>
<path d="M56.0755 29.9585L55.2504 29.3936L55.247 29.3986L56.0755 29.9585ZM60.6749 22.4683L59.7835 22.015L59.7795 22.0229L59.7756 22.0309L60.6749 22.4683ZM45.1079 46.1872L44.2794 45.6273L43.2251 47.1872H45.1079V46.1872ZM52.0094 46.1872V47.1872H52.506L52.8061 46.7916L52.0094 46.1872ZM56.7275 39.968L57.5242 40.5724L57.5388 40.5531L57.5524 40.5332L56.7275 39.968ZM62.0311 32.2283L62.856 32.7935L62.8572 32.7917L62.0311 32.2283ZM67.22 23.3762L66.3057 22.9712L66.3024 22.9789L67.22 23.3762ZM67.4559 11.006L66.5729 11.4755L66.5729 11.4755L67.4559 11.006ZM63.5642 7.14746L63.0612 8.01179L63.0727 8.01848L63.0844 8.02487L63.5642 7.14746ZM45.4027 9.81442L44.7917 9.02285L44.3405 9.37113L44.4103 9.93679L45.4027 9.81442ZM46.2283 16.5102L45.2358 16.6326L45.4805 18.6176L46.9217 17.2308L46.2283 16.5102ZM60.498 13.3325L61.2048 12.6252L60.498 13.3325ZM64.5962 40.0589V39.0589H64.094L63.7941 39.4617L64.5962 40.0589ZM60.0336 46.1872L59.2315 45.5901L58.0424 47.1872H60.0336V46.1872ZM70.2273 46.1872V47.1872H71.2273V46.1872H70.2273ZM70.2273 40.0589H71.2273V39.0589H70.2273V40.0589ZM56.9007 30.5234C59.1086 27.2983 60.6759 24.7523 61.5741 22.9057L59.7756 22.0309C58.9441 23.7403 57.4452 26.1877 55.2504 29.3936L56.9007 30.5234ZM45.9364 46.7472L56.9041 30.5184L55.247 29.3986L44.2794 45.6273L45.9364 46.7472ZM52.0094 45.1872H45.1079V47.1872H52.0094V45.1872ZM52.8061 46.7916L57.5242 40.5724L55.9308 39.3636L51.2127 45.5829L52.8061 46.7916ZM61.2061 31.663L55.9026 39.4027L57.5524 40.5332L62.856 32.7935L61.2061 31.663ZM66.3024 22.9789C65.357 25.1623 63.6687 28.052 61.2049 31.6648L62.8572 32.7917C65.3466 29.1413 67.1176 26.1296 68.1377 23.7735L66.3024 22.9789ZM67.7531 16.4535C67.7531 18.6089 67.2766 20.7791 66.3057 22.9712L68.1344 23.7812C69.2076 21.3581 69.7531 18.9131 69.7531 16.4535H67.7531ZM66.5729 11.4755C67.3543 12.9451 67.7531 14.5974 67.7531 16.4535H69.7531C69.7531 14.2996 69.2872 12.3203 68.3389 10.5366L66.5729 11.4755ZM63.0844 8.02487C64.6553 8.88378 65.8063 10.0335 66.5729 11.4755L68.3389 10.5366C67.3758 8.72526 65.9324 7.3026 64.0439 6.27005L63.0844 8.02487ZM57.4317 6.67212C59.6927 6.67212 61.5546 7.13515 63.0612 8.01179L64.0671 6.28313C62.193 5.19265 59.9666 4.67212 57.4317 4.67212V6.67212ZM46.0138 10.606C49.4193 7.97705 53.2149 6.67212 57.4317 6.67212V4.67212C52.7644 4.67212 48.5407 6.12872 44.7917 9.02285L46.0138 10.606ZM47.2207 16.3878L46.3952 9.69206L44.4103 9.93679L45.2358 16.6326L47.2207 16.3878ZM56.2524 10.8005C52.4988 10.8005 48.9218 12.5303 45.5349 15.7896L46.9217 17.2308C50.0603 14.2104 53.166 12.8005 56.2524 12.8005V10.8005ZM61.2048 12.6252C59.9507 11.3719 58.2554 10.8005 56.2524 10.8005V12.8005C57.866 12.8005 59.001 13.2504 59.7911 14.0399L61.2048 12.6252ZM63.0311 17.4748C63.0311 15.5273 62.4519 13.8715 61.2048 12.6252L59.7911 14.0399C60.5881 14.8364 61.0311 15.9421 61.0311 17.4748H63.0311ZM61.5662 22.9216C62.522 21.0421 63.0311 19.2219 63.0311 17.4748H61.0311C61.0311 18.8298 60.636 20.3386 59.7835 22.015L61.5662 22.9216ZM63.7941 39.4617L59.2315 45.5901L60.8357 46.7844L65.3983 40.6561L63.7941 39.4617ZM70.2273 45.1872H60.0336V47.1872H70.2273V45.1872ZM69.2273 40.0589V46.1872H71.2273V40.0589H69.2273ZM64.5962 41.0589H70.2273V39.0589H64.5962V41.0589Z" fill="white" mask="url(#path-1-outside-1_128_2)"/>
<path fill-rule="evenodd" clip-rule="evenodd" d="M94.4154 41.6622L88.5916 47.957V69.686H76.7097V0H88.5916V32.6893L95.1665 24.4093L115.173 0H129.544L104.137 30.8705L104.142 30.8781L94.3942 41.6308L94.4154 41.6622ZM111.033 40.8349L131 69.686H116.911L102.966 49.2774L111.033 40.8349Z" fill="white"/>
<path fill-rule="evenodd" clip-rule="evenodd" d="M30.4966 71.5777C30.0189 70.6522 29.601 69.1445 29.2427 67.0547C25.7795 70.6671 21.5402 72.4733 16.5246 72.4733C11.6583 72.4733 7.68759 71.0851 4.61255 68.3086C1.53752 65.5321 0 62.0988 0 58.0087C0 52.8439 1.9107 48.8881 5.73211 46.1415C9.58336 43.365 15.0766 41.9767 22.2119 41.9767H28.8844V38.7972C28.8844 37.5353 28.7068 36.4018 28.3515 35.3969C28.2261 34.8801 27.9858 34.3856 27.6466 33.9231C27.3958 33.52 27.1068 33.1444 26.7797 32.7964C25.3765 31.2738 23.2419 30.5125 20.3758 30.5125C20.1861 30.5125 19.9989 30.5162 19.8144 30.5236C19.5128 30.5063 19.2071 30.4975 18.898 30.4975C15.5587 30.4975 12.6196 31.5255 10.9116 33.0828L6.56207 26.7218C7.81016 25.7374 9.23523 24.8962 10.8373 24.1983C13.8824 22.8846 17.271 22.2278 21.0028 22.2278C26.6752 22.2278 31.1982 23.6609 34.5718 26.5269C37.9453 29.3631 39.6769 33.3637 39.7665 38.5285V60.3822C39.7665 64.741 40.3785 68.219 41.6025 70.8164V71.5777H30.4966ZM18.5398 63.7408C20.6893 63.7408 22.7045 63.2184 24.5854 62.1735C26.4961 61.1285 27.9291 59.7254 28.8844 57.9639V48.8284H23.018C18.9876 48.8284 15.9573 49.53 13.9272 50.9332C11.8971 52.3363 10.882 54.3217 10.882 56.8892C10.882 58.979 11.5687 60.6509 12.942 61.9048C14.3452 63.1288 16.2111 63.7408 18.5398 63.7408Z" fill="white"/>
<path fill-rule="evenodd" clip-rule="evenodd" d="M246.467 60.9654C246.342 60.8678 246.211 60.7771 246.074 60.6931C245.333 60.231 244.485 60 243.53 60C242.574 60 241.723 60.231 240.978 60.6931C240.237 61.1499 239.662 61.8089 239.253 62.6701C238.848 63.526 238.646 64.5184 238.646 65.6473V66.2144C238.651 67.3171 238.859 68.2938 239.268 69.1444C239.435 69.4889 239.63 69.8012 239.853 70.0811L241.306 68.0788C241.129 67.5441 241.041 66.9017 241.041 66.1514V65.5922C241.046 64.4003 241.264 63.4971 241.694 62.8827C242.125 62.2631 242.737 61.9533 243.53 61.9533C244.236 61.9533 244.799 62.1983 245.217 62.6881L246.467 60.9654ZM241.99 69.2481C242.392 69.6463 242.91 69.8454 243.545 69.8454C244.338 69.8454 244.947 69.5356 245.373 68.916C245.798 68.2912 246.013 67.3828 246.018 66.1908V65.6316C246.018 64.9888 245.957 64.4285 245.834 63.9508L247.338 61.8776C247.511 62.1194 247.664 62.3835 247.799 62.6701C248.208 63.526 248.413 64.5158 248.413 65.6395V66.1514C248.413 67.2804 248.213 68.2702 247.814 69.1208C247.415 69.9715 246.843 70.6278 246.097 71.0899C245.357 71.552 244.506 71.783 243.545 71.783C242.595 71.783 241.747 71.5546 241.001 71.0978C240.919 71.0477 240.84 70.9953 240.762 70.9405L241.99 69.2481ZM192.952 70.7197C193.776 70.0108 194.233 69.0394 194.322 67.8055H191.959C191.907 68.5038 191.699 69.0211 191.337 69.3571C190.98 69.6879 190.437 69.8533 189.707 69.8533C188.898 69.8533 188.305 69.5671 187.927 68.9948C187.554 68.4225 187.367 67.5167 187.367 66.2775V65.4111C187.378 64.2244 187.577 63.3501 187.966 62.7882C188.36 62.2211 188.951 61.9376 189.738 61.9376C190.463 61.9376 191.001 62.1056 191.353 62.4417C191.71 62.7725 191.917 63.3081 191.975 64.0484H194.338C194.212 62.7672 193.745 61.7722 192.936 61.0633C192.127 60.3544 191.061 60 189.738 60C188.782 60 187.942 60.2258 187.218 60.6774C186.498 61.1237 185.944 61.7669 185.556 62.6071C185.167 63.4472 184.973 64.4186 184.973 65.5213V66.2223C184.973 67.9499 185.393 69.3099 186.233 70.3023C187.079 71.2894 188.236 71.783 189.707 71.783C191.051 71.783 192.133 71.4286 192.952 70.7197ZM161.341 62.0715H157.829V71.6255H155.466V62.0715H152V60.1575H161.341V62.0715ZM176.371 66.6555H171.834V69.7273H177.158V71.6255H169.471V60.1575H177.143V62.0715H171.834V64.8046H176.371V66.6555ZM211.982 71.6255H209.619V66.7107H205.012V71.6255H202.649V60.1575H205.012V64.8046H209.619V60.1575H211.982V71.6255ZM227.791 71.6255H230.154V60.1575H227.799V67.7188L223.192 60.1575H220.829V71.6255H223.192V64.08L227.791 71.6255Z" fill="white"/>
<path fill-rule="evenodd" clip-rule="evenodd" d="M279.635 60.7915C279.585 60.7577 279.534 60.7249 279.482 60.6931C278.742 60.231 277.894 60 276.938 60C275.982 60 275.132 60.231 274.386 60.6931C273.646 61.1499 273.071 61.8089 272.661 62.6701C272.257 63.526 272.055 64.5184 272.055 65.6473V66.2144C272.06 67.3171 272.267 68.2938 272.677 69.1444C272.796 69.3898 272.929 69.6187 273.076 69.8313L274.612 67.715C274.503 67.2598 274.449 66.7386 274.449 66.1514V65.5922C274.454 64.4003 274.672 63.4971 275.103 62.8827C275.533 62.2631 276.145 61.9533 276.938 61.9533C277.532 61.9533 278.025 62.1265 278.415 62.473L279.635 60.7915ZM275.198 69.0198C275.622 69.5702 276.207 69.8454 276.954 69.8454C277.747 69.8454 278.356 69.5356 278.781 68.916C279.206 68.2912 279.422 67.3828 279.427 66.1908V65.6316C279.427 64.8217 279.329 64.1428 279.134 63.5949L280.559 61.6316C280.809 61.9369 281.025 62.2831 281.207 62.6701C281.617 63.526 281.821 64.5158 281.821 65.6395V66.1514C281.821 67.2804 281.622 68.2702 281.223 69.1208C280.824 69.9715 280.251 70.6278 279.506 71.0899C278.765 71.552 277.915 71.783 276.954 71.783C276.003 71.783 275.155 71.5546 274.41 71.0978C274.243 70.9954 274.084 70.8833 273.934 70.7614L275.198 69.0198ZM264.768 69.7273H259.751V60.1575H257.388V71.6255H264.768V69.7273ZM297.583 71.3656C298.36 71.082 298.962 70.6856 299.387 70.1763V65.6001H294.874V67.3408H297.024V69.3177C296.646 69.6958 296.013 69.8848 295.126 69.8848C294.244 69.8848 293.574 69.5776 293.117 68.9633C292.661 68.3489 292.432 67.4405 292.432 66.2381V65.5056C292.437 64.3136 292.65 63.4157 293.07 62.8119C293.49 62.208 294.102 61.9061 294.905 61.9061C295.535 61.9061 296.029 62.0584 296.386 62.3629C296.748 62.6675 296.982 63.1479 297.087 63.8043H299.387C299.245 62.5651 298.791 61.6225 298.024 60.9767C297.258 60.3256 296.194 60 294.834 60C293.858 60 293.004 60.2232 292.275 60.6695C291.55 61.1106 290.993 61.7512 290.605 62.5913C290.221 63.4262 290.03 64.416 290.03 65.5607V66.3405C290.04 67.4537 290.248 68.4224 290.652 69.2468C291.062 70.0712 291.639 70.7013 292.385 71.1372C293.136 71.5677 294.007 71.783 295 71.783C295.945 71.783 296.806 71.6439 297.583 71.3656ZM310.596 71.6255H308.233V60.1575H310.596V71.6255ZM321.932 66.6555H326.468V64.8046H321.932V62.0715H327.24V60.1575H319.569V71.6255H327.256V69.7273H321.932V66.6555ZM341.364 68.6167C341.364 68.1704 341.206 67.8291 340.891 67.5928C340.576 67.3513 340.009 67.0992 339.19 66.8367C338.371 66.5689 337.722 66.3063 337.244 66.049C335.942 65.3454 335.291 64.3976 335.291 63.2057C335.291 62.5861 335.464 62.0347 335.811 61.5516C336.163 61.0633 336.664 60.6826 337.315 60.4096C337.972 60.1365 338.707 60 339.521 60C340.34 60 341.07 60.1497 341.71 60.449C342.351 60.743 342.847 61.1604 343.199 61.7013C343.556 62.2421 343.735 62.8565 343.735 63.5444H341.372C341.372 63.0193 341.206 62.6123 340.875 62.3235C340.545 62.0295 340.08 61.8824 339.481 61.8824C338.904 61.8824 338.455 62.0058 338.135 62.2526C337.814 62.4942 337.654 62.8145 337.654 63.2136C337.654 63.5864 337.84 63.8988 338.213 64.1508C338.591 64.4029 339.145 64.6392 339.875 64.8597C341.219 65.264 342.199 65.7655 342.813 66.3641C343.427 66.9627 343.735 67.7083 343.735 68.601C343.735 69.5934 343.359 70.3732 342.608 70.9403C341.857 71.5021 340.847 71.783 339.576 71.783C338.694 71.783 337.89 71.6229 337.166 71.3026C336.441 70.977 335.887 70.5333 335.504 69.9715C335.126 69.4096 334.937 68.7585 334.937 68.0181H337.307C337.307 69.2836 338.064 69.9163 339.576 69.9163C340.138 69.9163 340.576 69.8034 340.891 69.5776C341.206 69.3466 341.364 69.0263 341.364 68.6167Z" fill="white"/>
<path fill-rule="evenodd" clip-rule="evenodd" d="M367.044 24.2802C368.354 24.7463 369.765 25 371.235 25C378.138 25 383.735 19.4036 383.735 12.5C383.735 8.65695 382 5.21896 379.272 2.92598L367.044 24.2802ZM373.544 0.212901C372.796 0.0731016 372.024 0 371.235 0C364.331 0 358.735 5.59644 358.735 12.5C358.735 15.6418 359.894 18.5129 361.808 20.7089L373.544 0.212901Z" fill="white"/>
</svg>
